<svg viewBox="0 0 220 272" xmlns="http://www.w3.org/2000/svg">
<path d="M 43 73 L 177 73 L 167 225 Q 166 231 160 231 L 60 231 Q 54 231 53 225 L 43 73 Z" fill="#2E9E4F"/><path d="M 167 225 Q 166 231 160 231 L 130 231 L 140 73 L 177 73 Z" fill="#000000" opacity="0.08"/><rect x="46" y="73" width="128" height="7" fill="#000000" opacity="0.10"/>
<rect x="106" y="105" width="8" height="6" rx="1" fill="#ffffff"/><path d="M 107 110 L 113 110 L 113 136 Q 122 144 122 160 L 122 178 Q 122 184 116 184 L 104 184 Q 98 184 98 178 L 98 160 Q 98 144 107 136 Z" fill="#ffffff"/><rect x="98" y="158" width="24" height="15" fill="#2E9E4F" opacity="0.30"/>
<rect x="87" y="33" width="46" height="15" rx="7.5" fill="#1B7A38"/><rect x="30" y="46" width="160" height="25" rx="11" fill="#1B7A38"/><rect x="30" y="46" width="160" height="9" rx="4.5" fill="#ffffff" opacity="0.12"/>
<path d="M 115.08 58.71 L 118.47 59.19 A 8.55 8.55 0 0 1 109.11 66.50 L 108.90 68.49 L 106.38 63.80 L 109.67 61.12 L 109.46 63.10 A 5.13 5.13 0 0 0 115.08 58.71 Z" fill="#ffffff"/>
<path d="M 106.84 62.04 L 104.74 64.74 A 8.55 8.55 0 0 1 103.08 52.97 L 101.47 51.80 L 106.79 51.96 L 107.46 56.16 L 105.85 54.98 A 5.13 5.13 0 0 0 106.84 62.04 Z" fill="#ffffff"/>
<path d="M 108.08 53.24 L 106.80 50.07 A 8.55 8.55 0 0 1 117.81 54.52 L 119.63 53.71 L 116.84 58.24 L 112.86 56.72 L 114.69 55.91 A 5.13 5.13 0 0 0 108.08 53.24 Z" fill="#ffffff"/>
</svg>