<svg viewBox="0 0 220 272" xmlns="http://www.w3.org/2000/svg">
<path d="M 43 73 L 177 73 L 167 225 Q 166 231 160 231 L 60 231 Q 54 231 53 225 L 43 73 Z" fill="#757575"/><path d="M 167 225 Q 166 231 160 231 L 130 231 L 140 73 L 177 73 Z" fill="#000000" opacity="0.08"/><rect x="46" y="73" width="128" height="7" fill="#000000" opacity="0.10"/>
<path d="M 90 136 Q 88 180 100 183 L 120 183 Q 132 180 130 136 Q 122 130 110 130 Q 98 130 90 136 Z" fill="#ffffff"/><path d="M 106 130 Q 94 116 88 124 Q 96 132 106 132 Z" fill="#ffffff"/><path d="M 114 130 Q 126 116 132 124 Q 124 132 114 132 Z" fill="#ffffff"/><circle cx="110" cy="132" r="4.5" fill="#ffffff"/><path d="M 101 144 Q 104 162 101 176" stroke="#757575" stroke-width="2" fill="none" opacity="0.22"/><path d="M 110 144 Q 113 162 110 176" stroke="#757575" stroke-width="2" fill="none" opacity="0.22"/><path d="M 119 144 Q 122 162 119 176" stroke="#757575" stroke-width="2" fill="none" opacity="0.22"/>
<rect x="87" y="33" width="46" height="15" rx="7.5" fill="#4F4F4F"/><rect x="30" y="46" width="160" height="25" rx="11" fill="#4F4F4F"/><rect x="30" y="46" width="160" height="9" rx="4.5" fill="#ffffff" opacity="0.12"/>
</svg>